<svg xmlns="http://www.w3.org/2000/svg" width="375.134" height="72" viewBox="0 0 375.134 72">
  <defs>
    <style>.a,.c{fill:#fff;}.a{fill-rule:evenodd;}.b{fill:none;}</style>
  </defs>

  <path class="a" d="M74.463,1.323c2.326-.75,3.3.45,3.526,1.651.375,2.1-2.7,5.552-4.052,7.578C64.559,24.507,55.855,36.286,46.4,50.542c-1.351,2.026-3.977,6-5.777,6.077-2.926.075-5.627-5.477-6.978-7.8-3.076-5.177-4.052-6.828-9.454-15.906-1.125-1.876-2.1-3.977.075-5.177C27.644,25.857,37.473,41.838,40.4,41.688S65.684,9.576,73.262,2.073A3.267,3.267,0,0,1,74.463,1.323Z"
  transform="translate(-5.736 -0.272)"/>
  <path class="b" d="M55.168,12.468,59.52,7.75a10.185,10.185,0,0,0-1.5-.15H18.254A10.046,10.046,0,0,0,8.2,17.637V57.259A10.046,10.046,0,0,0,18.254,67.3H57.944A10.046,10.046,0,0,0,68,57.259V21.606l-1.275,1.423Z"
  transform="translate(-2.048 -1.898)"/>
  <path class="c" d="M65.951,20.154V55.817A10.047,10.047,0,0,1,55.9,65.856H16.206A10.047,10.047,0,0,1,6.152,55.817V16.183A10.047,10.047,0,0,1,16.206,6.144H55.9a9.249,9.249,0,0,1,1.5.15L62.049,1.2A16.663,16.663,0,0,0,55.9,0H16.206A16.223,16.223,0,0,0,0,16.183V55.817A16.223,16.223,0,0,0,16.206,72H55.9A16.223,16.223,0,0,0,72.1,55.817V16.183a10.073,10.073,0,0,0-.525-3.446Z"
                                                                                                                                                                                                                                                                                                                                                                                                                                                                                                                                                                                                                                                                                  transform="translate(0 0)"/>
  <g transform="translate(91.148 5.327)">
    <path class="c" d="M122.2,40.638l3.9-4.652c3.526,3.076,7.128,4.8,11.63,4.8,3.977,0,6.528-1.876,6.528-4.652v-.075c0-2.626-1.5-4.052-8.328-5.627-7.878-1.876-12.3-4.2-12.3-11.029v-.075c0-6.3,5.252-10.729,12.6-10.729a20.561,20.561,0,0,1,13.43,4.652l-3.451,4.877c-3.3-2.476-6.678-3.826-10.054-3.826-3.826,0-6,1.951-6,4.352v.075c0,2.851,1.651,4.127,8.778,5.777,7.8,1.876,11.855,4.727,11.855,10.8v.075c0,6.9-5.4,11.029-13.205,11.029A21.8,21.8,0,0,1,122.2,40.638Z" transform="translate(-122.2 -7.475)"/>
    <path class="c" d="M164,35.231v-.075A14.363,14.363,0,0,1,178.481,20.6a13.943,13.943,0,0,1,11.1,4.8l-3.977,4.277c-1.951-2.026-3.977-3.451-7.2-3.451-4.652,0-8.1,3.977-8.1,8.853v.075c0,4.952,3.451,8.928,8.328,8.928a9.495,9.495,0,0,0,7.2-3.451l3.826,3.826A14.493,14.493,0,0,1,164,35.231Z" transform="translate(-132.638 -10.471)"/>
    <path class="c" d="M202.675,7.1h6.377V22.031c1.8-2.551,4.352-4.877,8.7-4.877,6.3,0,9.9,4.2,9.9,10.654V45.59h-6.377V29.834c0-4.352-2.176-6.828-6-6.828-3.676,0-6.3,2.551-6.3,6.9V45.665H202.6V7.1Z" transform="translate(-142.276 -7.1)"/>
    <path class="c" d="M240.8,35.231v-.075a14.86,14.86,0,0,1,29.712-.075v.075c0,7.953-6.3,14.481-14.931,14.481A14.4,14.4,0,0,1,240.8,35.231Zm23.334,0v-.075c0-4.877-3.526-9-8.553-9-5.1,0-8.4,3.977-8.4,8.853v.15c0,4.877,3.526,8.928,8.478,8.928C260.833,44.084,264.134,40.033,264.134,35.231Z" transform="translate(-151.815 -10.471)"/>
    <path class="c" d="M283.5,35.231v-.075a14.86,14.86,0,0,1,29.712-.075v.075c0,7.953-6.3,14.481-14.931,14.481A14.4,14.4,0,0,1,283.5,35.231Zm23.334,0v-.075c0-4.877-3.526-9-8.553-9-5.1,0-8.4,3.977-8.4,8.853v.15c0,4.877,3.526,8.928,8.478,8.928C303.533,44.084,306.834,40.033,306.834,35.231Z" transform="translate(-162.478 -10.471)"/>
    <path class="c" d="M328.7,7.1h6.377V45.665H328.7Z" transform="translate(-173.764 -7.1)"/>
    <path class="c" d="M346.4,9.2h12.83c11.63,0,19.658,7.953,19.658,18.382v.075c0,10.429-8.028,18.457-19.658,18.457H346.4Zm4.2,3.9V42.363h8.628c9.379,0,15.306-6.3,15.306-14.481v-.075c0-8.178-5.927-14.631-15.306-14.631H350.6Z" transform="translate(-178.184 -7.624)"/>
    <path class="c" d="M394.8,35.731v-.075a14.218,14.218,0,1,1,28.436-.075v.075a14.218,14.218,0,1,1-28.436.075Zm24.234,0v-.075C419.034,29.8,414.683,25,408.905,25c-5.927,0-9.979,4.8-9.979,10.579v.075c0,5.852,4.352,10.579,10.054,10.579C414.983,46.235,419.034,41.433,419.034,35.731Z" transform="translate(-190.27 -10.671)"/>
    <path class="c" d="M436.7,35.731v-.075a14.2,14.2,0,0,1,24.91-9.379l-2.7,2.851C456.733,26.877,454.332,25,450.655,25c-5.552,0-9.754,4.727-9.754,10.579v.075c0,5.927,4.352,10.579,10.054,10.579,3.451,0,6.152-1.726,8.328-4.052l2.551,2.4c-2.776,3.076-6,5.252-11.1,5.252A13.977,13.977,0,0,1,436.7,35.731Z" transform="translate(-200.733 -10.671)"/>
    <path class="c" d="M472.6,45.71l2.026-2.926a15.623,15.623,0,0,0,9.454,3.451c3.3,0,5.627-1.726,5.627-4.352v-.075c0-2.776-3.226-3.826-6.828-4.8-4.277-1.2-9-2.7-9-7.728V29.2c0-4.727,3.9-7.8,9.3-7.8a18.443,18.443,0,0,1,9.829,3l-1.876,3.076a15.456,15.456,0,0,0-8.1-2.626c-3.226,0-5.252,1.726-5.252,3.977V28.9c0,2.551,3.376,3.6,7.053,4.727,4.2,1.275,8.778,2.926,8.778,7.8v.075c0,5.177-4.277,8.178-9.679,8.178A18.271,18.271,0,0,1,472.6,45.71Z" transform="translate(-209.697 -10.671)"/>
  </g>
  <g transform="translate(92.724 49.716)">
    <path class="c" d="M124.3,67.3h6c3.6,0,6,1.951,6,5.1v.075c0,3.451-2.926,5.252-6.3,5.252h-3.9v5.627h-1.8Zm5.777,8.7c2.626,0,4.427-1.426,4.427-3.526V72.4c0-2.326-1.726-3.451-4.277-3.451h-4.052V76Z" transform="translate(-124.3 -66.625)"/>
    <path class="c" d="M144.1,78.727h0a6.148,6.148,0,0,1,6.152-6.227,6.085,6.085,0,0,1,6.152,6.152v.075a6.152,6.152,0,1,1-12.3,0Zm10.579,0h0a4.487,4.487,0,0,0-4.427-4.652,4.406,4.406,0,0,0-4.352,4.577v.075a4.393,4.393,0,1,0,8.778,0Z" transform="translate(-129.244 -67.923)"/>
    <path class="c" d="M166,66.4h1.726V83.132H166Z" transform="translate(-134.713 -66.4)"/>
    <path class="c" d="M174.8,66.8h2.026v1.951H174.8Zm.075,4.577h1.8V83.231h-1.8Z" transform="translate(-136.91 -66.5)"/>
    <path class="c" d="M182.7,78.727h0A6.167,6.167,0,0,1,193.5,74.6l-1.2,1.275a4.949,4.949,0,0,0-3.6-1.8,4.395,4.395,0,0,0-4.277,4.577v.075a4.408,4.408,0,0,0,4.352,4.577,4.7,4.7,0,0,0,3.6-1.8l1.125,1.05a6.041,6.041,0,0,1-10.8-3.826Z" transform="translate(-138.883 -67.923)"/>
    <path class="c" d="M202.1,66.8h2.026v1.951H202.1Zm.075,4.577H203.9V83.231h-1.726Z" transform="translate(-143.727 -66.5)"/>
    <path class="c" d="M210,78.727h0c0-3.451,2.4-6.227,5.7-6.227,3.526,0,5.552,2.776,5.552,6.227v.6h-9.379a4.087,4.087,0,0,0,4.2,3.977,5.018,5.018,0,0,0,3.751-1.651l1.125.975a6.068,6.068,0,0,1-4.877,2.251A5.891,5.891,0,0,1,210,78.727Zm9.379-.675c-.15-2.176-1.426-4.052-3.751-4.052-2.026,0-3.6,1.726-3.827,4.052Z" transform="translate(-145.7 -67.923)"/>
    <path class="c" d="M228.6,83.054l.9-1.276a6.814,6.814,0,0,0,4.127,1.5c1.426,0,2.476-.75,2.476-1.876v-.075c0-1.2-1.426-1.651-2.926-2.1-1.876-.525-3.9-1.2-3.9-3.376v-.075c0-2.026,1.726-3.376,4.052-3.376a8.622,8.622,0,0,1,4.277,1.275l-.825,1.351a6.977,6.977,0,0,0-3.526-1.125c-1.426,0-2.326.75-2.326,1.726V75.7c0,1.125,1.5,1.576,3.076,2.026,1.8.525,3.826,1.275,3.826,3.376v.075c0,2.251-1.876,3.526-4.2,3.526A7.525,7.525,0,0,1,228.6,83.054Z" transform="translate(-150.344 -67.898)"/>
    <path class="c" d="M255,81.253h0c0-2.551,2.026-3.9,5.1-3.9a12.728,12.728,0,0,1,3.676.525v-.45c0-2.1-1.276-3.226-3.526-3.226a7.989,7.989,0,0,0-3.6.9l-.525-1.426A9.7,9.7,0,0,1,260.4,72.7a5.472,5.472,0,0,1,3.827,1.275,4.61,4.61,0,0,1,1.2,3.451v7.2H263.7v-1.8a5.217,5.217,0,0,1-4.277,2.026C257.176,84.93,255,83.654,255,81.253Zm8.7-.975V79.153a13.384,13.384,0,0,0-3.451-.525c-2.251,0-3.451.975-3.451,2.476v.075c0,1.5,1.351,2.326,3,2.326C261.9,83.5,263.7,82.154,263.7,80.278Z" transform="translate(-156.937 -67.973)"/>
    <path class="c" d="M274.7,72.8h1.8v2.026a4.484,4.484,0,0,1,4.052-2.326c2.851,0,4.5,1.951,4.5,4.727V84.58h-1.726v-6.9c0-2.176-1.2-3.6-3.3-3.6a3.47,3.47,0,0,0-3.526,3.676V84.5h-1.8Z" transform="translate(-161.856 -67.923)"/>
    <path class="c" d="M293.6,77.2h0c0-3.9,2.851-6.227,5.627-6.227a5.268,5.268,0,0,1,4.5,2.551V66.4h1.8V83.132h-1.8v-2.4a5.266,5.266,0,0,1-4.5,2.626C296.376,83.357,293.6,81.106,293.6,77.2Zm10.2,0h0a4.4,4.4,0,0,0-4.277-4.577c-2.326,0-4.2,1.726-4.2,4.577v.075a4.292,4.292,0,0,0,4.2,4.577A4.513,4.513,0,0,0,303.8,77.2Z" transform="translate(-166.575 -66.4)"/>
    <path class="c" d="M326.1,67.3h6c3.6,0,6,1.951,6,5.1v.075c0,3.451-2.851,5.252-6.3,5.252h-3.9v5.627h-1.8Zm5.777,8.7c2.626,0,4.427-1.426,4.427-3.526V72.4c0-2.326-1.726-3.451-4.277-3.451h-4.052V76Z" transform="translate(-174.691 -66.625)"/>
    <path class="c" d="M347.075,72.824H348.8V75.9a5.18,5.18,0,0,1,4.8-3.3v1.876h-.15c-2.626,0-4.727,1.876-4.727,5.4V84.6H347V72.824Z" transform="translate(-179.91 -67.947)"/>
    <path class="c" d="M358.7,78.727h0a6.148,6.148,0,0,1,6.152-6.227A6.085,6.085,0,0,1,371,78.652v.075a6.152,6.152,0,1,1-12.3,0Zm10.5,0h0a4.487,4.487,0,0,0-4.427-4.652,4.406,4.406,0,0,0-4.352,4.577v.075a4.408,4.408,0,0,0,4.352,4.577A4.334,4.334,0,0,0,369.2,78.727Z" transform="translate(-182.831 -67.923)"/>
    <path class="c" d="M379.3,78.727h0a6.133,6.133,0,0,1,6.077-6.227,6.245,6.245,0,0,1,4.727,2.1l-1.2,1.275a4.95,4.95,0,0,0-3.6-1.8,4.335,4.335,0,0,0-4.2,4.577v.075a4.408,4.408,0,0,0,4.352,4.577,4.7,4.7,0,0,0,3.6-1.8l1.125,1.05A6.091,6.091,0,0,1,379.3,78.727Z" transform="translate(-187.975 -67.923)"/>
    <path class="c" d="M397.2,78.727h0c0-3.451,2.4-6.227,5.7-6.227,3.526,0,5.552,2.776,5.552,6.227v.6h-9.379a4.133,4.133,0,0,0,4.2,3.977,5.018,5.018,0,0,0,3.751-1.651l1.125.975a6.068,6.068,0,0,1-4.877,2.251A5.933,5.933,0,0,1,397.2,78.727Zm9.454-.675C406.5,75.876,405.228,74,402.9,74c-2.026,0-3.6,1.726-3.827,4.052Z" transform="translate(-192.445 -67.923)"/>
    <path class="c" d="M416.3,77.2h0c0-3.9,2.851-6.227,5.627-6.227a5.268,5.268,0,0,1,4.5,2.551V66.4h1.8V83.132h-1.8v-2.4a5.266,5.266,0,0,1-4.5,2.626A5.8,5.8,0,0,1,416.3,77.2Zm10.279,0h0a4.4,4.4,0,0,0-4.277-4.577,4.248,4.248,0,0,0-4.2,4.577v.075a4.292,4.292,0,0,0,4.2,4.577A4.564,4.564,0,0,0,426.579,77.2Z" transform="translate(-197.214 -66.4)"/>
    <path class="c" d="M438.2,80.253V72.9H440v6.9c0,2.176,1.2,3.6,3.3,3.6a3.47,3.47,0,0,0,3.526-3.676V72.975h1.726V84.83h-1.726V82.8a4.623,4.623,0,0,1-8.628-2.551Z" transform="translate(-202.683 -68.023)"/>
    <path class="c" d="M458.075,72.824H459.8V75.9a5.18,5.18,0,0,1,4.8-3.3v1.876h-.15c-2.626,0-4.727,1.876-4.727,5.4V84.6H458V72.824Z" transform="translate(-207.627 -67.947)"/>
    <path class="c" d="M469.8,78.727h0c0-3.451,2.4-6.227,5.7-6.227,3.526,0,5.552,2.776,5.552,6.227v.6h-9.379a4.087,4.087,0,0,0,4.2,3.977,5.018,5.018,0,0,0,3.751-1.651l1.125.975a6.068,6.068,0,0,1-4.877,2.251A5.891,5.891,0,0,1,469.8,78.727Zm9.379-.675c-.15-2.176-1.426-4.052-3.751-4.052-2.1,0-3.6,1.726-3.826,4.052Z" transform="translate(-210.574 -67.923)"/>
    <path class="c" d="M488.4,83.054l.9-1.276a6.815,6.815,0,0,0,4.127,1.5c1.426,0,2.476-.75,2.476-1.876v-.075c0-1.2-1.426-1.651-2.926-2.1-1.876-.525-3.9-1.2-3.9-3.376v-.075c0-2.026,1.726-3.376,4.052-3.376a8.622,8.622,0,0,1,4.277,1.275l-.825,1.351a6.977,6.977,0,0,0-3.526-1.125c-1.426,0-2.326.75-2.326,1.726V75.7c0,1.125,1.5,1.576,3.076,2.026,1.8.525,3.826,1.275,3.826,3.376v.075c0,2.251-1.876,3.526-4.2,3.526A7.525,7.525,0,0,1,488.4,83.054Z" transform="translate(-215.218 -67.898)"/>
  </g>
</svg>